<?xml version="1.0" standalone="no"?>
<!DOCTYPE svg PUBLIC "-//W3C//DTD SVG 20010904//EN"
 "http://www.w3.org/TR/2001/REC-SVG-20010904/DTD/svg10.dtd">
<svg version="1.0" xmlns="http://www.w3.org/2000/svg"
 width="1024.000000pt" height="1024.000000pt" viewBox="0 0 1024.000000 1024.000000"
 preserveAspectRatio="xMidYMid meet">

<g transform="translate(0.000000,1024.000000) scale(0.100000,-0.100000)"
fill="#000000" stroke="none">
<path d="M4876 8484 c-43 -8 -127 -30 -185 -50 -111 -37 -255 -109 -246 -123
2 -5 -3 -8 -13 -7 -9 0 -16 -4 -15 -11 1 -6 -14 -23 -35 -38 l-37 -26 35 30
c19 17 30 31 25 31 -6 0 -30 -19 -55 -41 -25 -23 -36 -35 -25 -28 20 14 20 13
1 -9 -20 -23 -32 -30 -21 -12 16 26 -15 5 -58 -38 -45 -46 -61 -71 -34 -56 6
4 1 -5 -12 -19 -28 -30 -41 -36 -20 -9 8 10 2 5 -13 -12 -16 -17 -27 -37 -25
-44 1 -8 -7 -16 -18 -18 -11 -1 -38 -5 -60 -8 -26 -4 -35 -3 -26 3 22 14 -88
25 -198 18 -53 -3 -132 -15 -176 -27 -94 -25 -269 -105 -261 -119 4 -5 1 -13
-5 -17 -8 -5 -9 -3 -4 6 5 8 3 11 -6 8 -8 -3 -14 -10 -14 -16 0 -5 -4 -14 -9
-19 -5 -5 -6 -2 -1 6 5 9 3 12 -6 9 -8 -3 -14 -10 -14 -16 0 -5 -4 -14 -9 -19
-5 -5 -6 -3 -2 5 18 32 -19 5 -103 -74 -54 -51 -90 -93 -89 -102 2 -9 -3 -17
-9 -17 -16 0 -46 -42 -38 -54 3 -5 0 -13 -6 -17 -8 -5 -10 -2 -5 7 4 8 0 5 -9
-6 -27 -33 -56 -95 -50 -106 4 -5 1 -8 -5 -7 -12 3 -59 -103 -59 -132 0 -10 4
-8 10 5 8 17 9 17 4 -5 -2 -14 -5 -32 -6 -40 0 -10 -3 -8 -8 5 -6 15 -11 2
-21 -48 -7 -37 -10 -76 -7 -87 3 -11 1 -18 -4 -14 -12 7 -11 -163 1 -251 6
-38 15 -71 20 -73 5 -2 6 -10 4 -17 -14 -35 95 -290 123 -290 6 0 15 -4 20 -9
5 -5 3 -6 -4 -2 -7 4 -13 3 -13 -2 0 -14 26 -33 34 -25 4 4 4 0 1 -8 -3 -9 2
-22 11 -30 15 -12 17 -12 9 0 -5 10 -4 12 4 7 6 -4 9 -11 6 -16 -8 -13 55 -81
68 -73 5 3 7 1 4 -4 -8 -13 15 -34 40 -37 10 -2 18 -7 18 -12 0 -14 15 -34 26
-34 6 0 7 6 3 13 -4 7 -3 9 2 4 5 -5 9 -14 9 -20 0 -7 8 -12 17 -12 9 0 20 -4
25 -9 5 -5 2 -6 -6 -1 -10 6 -12 4 -7 -4 5 -7 15 -10 23 -7 8 3 11 1 8 -4 -8
-12 72 -53 87 -44 7 5 8 3 3 -6 -6 -10 -4 -12 9 -7 11 5 15 3 10 -5 -5 -8 -2
-9 10 -5 10 4 15 3 11 -3 -3 -5 13 -14 35 -21 l40 -12 0 -589 c0 -579 6 -704
32 -666 6 9 7 6 3 -9 -7 -24 21 -87 34 -78 5 2 8 -3 7 -13 0 -9 5 -16 12 -14
8 1 11 -1 8 -6 -8 -13 50 -65 63 -57 7 3 10 1 9 -6 -6 -26 203 -118 238 -105
8 3 13 2 10 -3 -13 -20 306 -71 579 -93 199 -16 899 -16 1085 0 215 19 430 50
559 83 120 30 246 82 237 98 -4 5 -1 13 5 17 8 4 9 3 5 -4 -10 -17 9 -15 23 1
6 8 7 18 3 22 -4 5 -2 5 4 2 12 -7 54 19 54 34 0 6 -5 7 -12 3 -7 -4 -8 -3 -4
5 4 6 11 9 15 6 22 -13 74 86 91 170 8 42 10 234 8 637 -2 317 0 574 5 571 12
-7 48 8 42 18 -3 5 1 6 9 3 14 -5 146 60 146 72 0 3 -5 2 -12 -2 -7 -4 -8 -3
-4 5 4 6 11 9 16 6 12 -8 61 25 55 35 -3 5 0 12 6 16 8 4 9 3 5 -4 -10 -17 9
-15 23 1 6 8 7 17 3 21 -4 4 0 6 8 4 8 -1 14 4 15 12 0 8 7 14 16 12 20 -3
102 85 93 101 -4 7 -4 9 1 5 9 -9 35 9 35 24 0 5 -6 6 -12 2 -8 -4 -10 -3 -5
2 5 5 14 9 20 9 7 0 13 10 13 23 1 13 7 29 14 35 10 10 10 7 1 -10 -18 -35 -5
-27 19 12 12 19 19 39 15 45 -4 6 -1 9 6 8 19 -5 80 141 74 177 -3 19 -2 25 4
17 12 -19 22 26 16 70 -4 25 -3 28 4 13 7 -16 10 -8 14 35 4 30 6 62 6 70 0 8
2 38 4 65 4 41 3 44 -3 15 -7 -31 -8 -29 -7 18 1 28 -2 54 -8 56 -5 3 -4 5 3
5 18 1 15 48 -12 153 -26 103 -64 200 -75 193 -4 -2 -7 6 -7 18 1 12 -4 21
-11 20 -7 -2 -10 3 -7 10 2 7 -3 21 -11 32 -15 19 -16 19 -4 -5 9 -20 9 -23
-1 -13 -7 6 -13 22 -14 35 0 13 -6 23 -13 23 -6 0 -15 4 -20 9 -5 5 -3 6 5 2
6 -4 12 -3 12 2 0 12 -25 33 -32 27 -3 -3 -17 11 -32 32 l-27 38 30 -35 c17
-19 31 -30 31 -24 0 6 -16 25 -35 44 -19 19 -35 30 -35 25 0 -5 -16 6 -35 25
-19 18 -32 36 -30 40 7 11 -32 43 -44 36 -5 -4 -13 -1 -17 5 -5 8 -3 9 7 4 12
-8 12 -6 0 8 -16 20 -36 23 -25 5 4 -8 3 -10 -2 -5 -5 5 -9 14 -9 20 0 7 -7
12 -16 12 -17 0 -119 53 -119 62 0 3 26 -9 58 -26 31 -18 48 -24 37 -15 -38
31 -200 103 -285 125 -91 24 -256 31 -398 17 -65 -7 -72 -6 -70 10 2 9 -2 17
-9 17 -6 0 -15 4 -20 9 -5 5 -3 6 5 2 6 -4 12 -3 12 2 0 12 -35 43 -42 37 -2
-3 -15 7 -29 23 l-24 27 28 -24 c46 -41 30 -8 -21 42 -46 46 -83 67 -47 27 10
-11 16 -20 13 -20 -2 0 -17 14 -34 32 -16 18 -21 26 -11 19 9 -7 17 -11 17 -8
0 11 -110 90 -117 84 -3 -4 -22 3 -42 15 -55 33 -62 45 -8 14 26 -15 47 -25
47 -22 0 12 -91 57 -101 50 -8 -4 -9 -3 -5 4 14 24 -205 106 -353 133 -126 23
-347 24 -465 3z m137 -1 c-13 -2 -33 -2 -45 0 -13 2 -3 4 22 4 25 0 35 -2 23
-4z m70 0 c-7 -2 -21 -2 -30 0 -10 3 -4 5 12 5 17 0 24 -2 18 -5z m64 1 c-3
-3 -12 -4 -19 -1 -8 3 -5 6 6 6 11 1 17 -2 13 -5z m96 -1 c-13 -2 -35 -2 -50
0 -16 2 -5 4 22 4 28 0 40 -2 28 -4z m-368 -18 c-27 -7 -59 -13 -70 -13 -11 0
3 6 30 13 28 7 59 13 70 13 11 0 -2 -6 -30 -13z m438 8 c-7 -2 -19 -2 -25 0
-7 3 -2 5 12 5 14 0 19 -2 13 -5z m60 -10 c-7 -2 -19 -2 -25 0 -7 3 -2 5 12 5
14 0 19 -2 13 -5z m102 -24 c14 -6 9 -7 -15 -3 -19 4 -44 11 -55 15 -14 6 -9
7 15 3 19 -4 44 -11 55 -15z m-725 -4 c-19 -7 -42 -13 -50 -13 -8 0 1 6 20 13
19 7 42 13 50 13 8 0 -1 -6 -20 -13z m780 -15 c8 -5 11 -10 5 -10 -5 0 -17 5
-25 10 -8 5 -10 10 -5 10 6 0 17 -5 25 -10z m-860 -10 c-8 -5 -19 -10 -25 -10
-5 0 -3 5 5 10 8 5 20 10 25 10 6 0 3 -5 -5 -10z m950 -25 c14 -8 21 -14 15
-14 -5 0 -21 6 -35 14 -14 8 -20 14 -15 14 6 0 21 -6 35 -14z m-1060 -19 c0
-2 -7 -7 -16 -10 -8 -3 -12 -2 -9 4 6 10 25 14 25 6z m-54 -31 c-11 -8 -25
-15 -30 -15 -6 1 0 7 14 15 32 19 40 18 16 0z m1359 -95 c10 -11 16 -20 13
-20 -3 0 -13 9 -23 20 -10 11 -16 20 -13 20 3 0 13 -9 23 -20z m-1922 -237
c-29 -2 -77 -2 -105 0 -29 2 -6 3 52 3 58 0 81 -1 53 -3z m2430 0 c-24 -2 -62
-2 -85 0 -24 2 -5 4 42 4 47 0 66 -2 43 -4z m-2610 -10 c-7 -2 -19 -2 -25 0
-7 3 -2 5 12 5 14 0 19 -2 13 -5z m2710 0 c-7 -2 -19 -2 -25 0 -7 3 -2 5 12 5
14 0 19 -2 13 -5z m-2756 -9 c-3 -3 -12 -4 -19 -1 -8 3 -5 6 6 6 11 1 17 -2
13 -5z m2810 0 c-3 -3 -12 -4 -19 -1 -8 3 -5 6 6 6 11 1 17 -2 13 -5z m-2850
-10 c-3 -3 -12 -4 -19 -1 -8 3 -5 6 6 6 11 1 17 -2 13 -5z m2890 0 c-3 -3 -12
-4 -19 -1 -8 3 -5 6 6 6 11 1 17 -2 13 -5z m-2972 -24 c-27 -12 -43 -12 -25 0
8 5 22 9 30 9 10 0 8 -3 -5 -9z m3105 -20 c8 -5 11 -10 5 -10 -5 0 -17 5 -25
10 -8 5 -10 10 -5 10 6 0 17 -5 25 -10z m-3225 -30 c-3 -5 -12 -10 -18 -10 -7
0 -6 4 3 10 19 12 23 12 15 0z m-155 -94 c0 -2 -8 -10 -17 -17 -16 -13 -17
-12 -4 4 13 16 21 21 21 13z m-41 -38 c-2 -2 -27 -23 -54 -48 l-50 -45 49 52
c28 29 52 50 55 48 2 -3 2 -6 0 -7z m1881 -208 c42 -23 44 -36 55 -575 9 -396
15 -527 25 -548 36 -74 165 -75 198 -2 9 19 12 165 12 548 0 584 -2 567 66
567 69 0 87 -27 99 -145 3 -33 21 -211 40 -395 53 -515 56 -561 45 -640 -28
-197 -117 -340 -288 -462 -147 -104 -147 -105 -138 -416 14 -471 26 -821 32
-924 l6 -108 -192 0 -193 0 6 128 c4 70 14 359 24 643 l17 515 -25 49 c-19 39
-40 60 -99 99 -155 105 -254 233 -296 386 -28 102 -22 277 25 740 50 481 48
474 73 505 28 36 89 35 117 -1 21 -26 21 -36 21 -551 0 -340 4 -531 10 -544
13 -24 61 -49 95 -49 35 0 82 25 96 53 9 15 15 158 21 492 10 566 12 590 43
621 26 26 72 32 105 14z m-2095 -50 c-9 -16 -18 -30 -21 -30 -2 0 2 14 11 30
9 17 18 30 21 30 2 0 -2 -13 -11 -30z m4164 -125 c0 -5 -6 1 -14 15 -8 14 -14
30 -14 35 0 6 6 -1 14 -15 8 -14 14 -29 14 -35z m-4228 -2 c-12 -20 -14 -14
-5 12 4 9 9 14 11 11 3 -2 0 -13 -6 -23z m4256 -95 c-3 -8 -6 -5 -6 6 -1 11 2
17 5 13 3 -3 4 -12 1 -19z m10 -40 c-3 -8 -6 -5 -6 6 -1 11 2 17 5 13 3 -3 4
-12 1 -19z m-4310 -20 c-3 -8 -6 -5 -6 6 -1 11 2 17 5 13 3 -3 4 -12 1 -19z
m-10 -60 c-3 -8 -6 -5 -6 6 -1 11 2 17 5 13 3 -3 4 -12 1 -19z m-10 -191 c-2
-23 -3 -1 -3 48 0 50 1 68 3 42 2 -26 2 -67 0 -90z m4350 -89 c-3 -7 -5 -2 -5
12 0 14 2 19 5 13 2 -7 2 -19 0 -25z m-4340 -30 c-3 -8 -6 -5 -6 6 -1 11 2 17
5 13 3 -3 4 -12 1 -19z m10 -40 c-3 -8 -6 -5 -6 6 -1 11 2 17 5 13 3 -3 4 -12
1 -19z m10 -60 c-3 -8 -6 -5 -6 6 -1 11 2 17 5 13 3 -3 4 -12 1 -19z m4274
-55 c-12 -20 -14 -14 -5 12 4 9 9 14 11 11 3 -2 0 -13 -6 -23z m-30 -70 c-12
-20 -14 -14 -5 12 4 9 9 14 11 11 3 -2 0 -13 -6 -23z m-4182 -33 c11 -24 11
-24 -3 -6 -9 11 -16 24 -16 30 0 12 5 7 19 -24z m4162 -13 c-10 -9 -11 -8 -5
6 3 10 9 15 12 12 3 -3 0 -11 -7 -18z m-4121 -57 c6 -11 8 -20 6 -20 -3 0 -10
9 -16 20 -6 11 -8 20 -6 20 3 0 10 -9 16 -20z m3730 -345 c0 -2 -10 -9 -22
-15 -22 -11 -22 -10 -4 4 21 17 26 19 26 11z m-50 -29 c0 -2 -7 -7 -16 -10 -8
-3 -12 -2 -9 4 6 10 25 14 25 6z m-113 -108 c-3 -8 -6 -5 -6 6 -1 11 2 17 5
13 3 -3 4 -12 1 -19z m-3040 -190 c-3 -8 -6 -5 -6 6 -1 11 2 17 5 13 3 -3 4
-12 1 -19z m3040 -300 c-3 -8 -6 -5 -6 6 -1 11 2 17 5 13 3 -3 4 -12 1 -19z
m0 -165 c-3 -10 -5 -2 -5 17 0 19 2 27 5 18 2 -10 2 -26 0 -35z m-3040 -100
c-3 -10 -5 -2 -5 17 0 19 2 27 5 18 2 -10 2 -26 0 -35z m0 -355 c-2 -18 -4 -6
-4 27 0 33 2 48 4 33 2 -15 2 -42 0 -60z m3040 10 c-3 -8 -6 -5 -6 6 -1 11 2
17 5 13 3 -3 4 -12 1 -19z m-3030 -70 c-3 -8 -6 -5 -6 6 -1 11 2 17 5 13 3 -3
4 -12 1 -19z m2983 -92 c0 -2 -8 -10 -17 -17 -16 -13 -17 -12 -4 4 13 16 21
21 21 13z m-2879 -83 c13 -16 12 -17 -3 -4 -17 13 -22 21 -14 21 2 0 10 -8 17
-17z m119 -79 c0 -2 -9 0 -20 6 -11 6 -20 13 -20 16 0 2 9 0 20 -6 11 -6 20
-13 20 -16z m2490 -34 c-8 -5 -19 -10 -25 -10 -5 0 -3 5 5 10 8 5 20 10 25 10
6 0 3 -5 -5 -10z m-2263 -36 c-3 -3 -12 -4 -19 -1 -8 3 -5 6 6 6 11 1 17 -2
13 -5z m2140 0 c-3 -3 -12 -4 -19 -1 -8 3 -5 6 6 6 11 1 17 -2 13 -5z m-2084
-11 c-7 -2 -19 -2 -25 0 -7 3 -2 5 12 5 14 0 19 -2 13 -5z m50 -10 c-7 -2 -19
-2 -25 0 -7 3 -2 5 12 5 14 0 19 -2 13 -5z m1940 0 c-7 -2 -21 -2 -30 0 -10 3
-4 5 12 5 17 0 24 -2 18 -5z m-1880 -10 c-7 -2 -21 -2 -30 0 -10 3 -4 5 12 5
17 0 24 -2 18 -5z m1824 1 c-3 -3 -12 -4 -19 -1 -8 3 -5 6 6 6 11 1 17 -2 13
-5z m-1764 -11 c-7 -2 -21 -2 -30 0 -10 3 -4 5 12 5 17 0 24 -2 18 -5z m1670
0 c-7 -2 -19 -2 -25 0 -7 3 -2 5 12 5 14 0 19 -2 13 -5z m-1595 -10 c-10 -2
-26 -2 -35 0 -10 3 -2 5 17 5 19 0 27 -2 18 -5z m1535 0 c-7 -2 -21 -2 -30 0
-10 3 -4 5 12 5 17 0 24 -2 18 -5z m-1435 -10 c-10 -2 -28 -2 -40 0 -13 2 -5
4 17 4 22 1 32 -1 23 -4z m1355 0 c-7 -2 -21 -2 -30 0 -10 3 -4 5 12 5 17 0
24 -2 18 -5z m-90 -10 c-7 -2 -21 -2 -30 0 -10 3 -4 5 12 5 17 0 24 -2 18 -5z
m-956 -10 c-20 -2 -52 -2 -70 0 -17 2 0 4 38 4 39 0 53 -2 32 -4z m796 0 c-24
-2 -62 -2 -85 0 -24 2 -5 4 42 4 47 0 66 -2 43 -4z"/>
<path d="M6994 7731 c16 -17 32 -29 34 -26 7 7 -18 34 -42 47 -16 8 -14 3 8
-21z"/>
<path d="M1313 3625 c-192 -42 -378 -220 -428 -410 -8 -33 -14 -73 -14 -90 1
-22 4 -16 10 19 25 152 99 278 212 364 105 79 197 112 341 122 l101 7 -80 1
c-44 0 -108 -6 -142 -13z"/>
<path d="M3413 3630 c-81 -15 -172 -56 -246 -111 -83 -63 -169 -179 -191 -259
-4 -14 10 9 30 50 68 134 206 251 353 296 76 24 226 29 304 10 83 -20 95 -19
42 1 -49 18 -220 26 -292 13z"/>
<path d="M1607 3610 c39 -10 91 -28 115 -40 68 -35 150 -100 144 -115 -7 -20
-127 -165 -136 -165 -4 0 -15 9 -26 21 -69 76 -254 111 -367 69 -123 -46 -219
-182 -216 -304 1 -37 2 -35 10 17 37 252 269 368 504 250 28 -13 61 -34 74
-46 l23 -22 49 55 c27 30 61 72 76 93 l26 38 -29 29 c-63 63 -231 141 -298
139 -11 0 11 -9 51 -19z"/>
<path d="M3806 3571 c34 -17 81 -48 105 -69 l43 -39 -64 -79 c-35 -43 -67 -83
-71 -87 -3 -5 -27 7 -52 26 -73 55 -128 72 -237 72 -78 0 -103 -5 -141 -23
-95 -47 -174 -159 -184 -259 l-4 -48 9 42 c24 110 91 207 173 251 47 24 62 27
152 27 96 0 103 -2 171 -37 38 -20 76 -43 83 -52 8 -9 17 -16 22 -16 9 0 149
171 149 182 0 24 -133 117 -190 132 -14 4 2 -7 36 -23z"/>
<path d="M8904 3497 c-3 -8 -3 -52 -1 -98 l3 -84 2 91 2 91 115 2 115 2 0
-100 0 -101 105 0 105 0 0 -100 0 -99 -92 -4 -93 -3 98 -2 97 -2 0 110 0 110
-105 0 -104 0 -3 98 -3 97 -118 3 c-92 2 -119 0 -123 -11z"/>
<path d="M2317 3309 c-60 -14 -136 -57 -182 -104 -45 -44 -100 -123 -92 -131
3 -3 16 15 30 38 36 61 118 135 184 165 44 20 80 28 162 33 l106 7 -85 0 c-47
1 -102 -3 -123 -8z"/>
<path d="M4483 3313 c26 -2 67 -2 90 0 23 2 2 3 -48 3 -49 0 -68 -1 -42 -3z"/>
<path d="M6362 3305 c-46 -14 -112 -55 -112 -68 0 -5 14 3 30 17 38 31 117 56
181 56 l48 0 4 -47 4 -48 -1 50 -1 50 -55 2 c-30 1 -74 -4 -98 -12z"/>
<path d="M6954 3299 c-28 -11 -67 -35 -87 -54 l-36 -35 -4 43 c-3 39 -4 38 -5
-12 l-2 -54 46 42 c59 55 102 73 194 81 l75 7 -65 1 c-43 1 -83 -6 -116 -19z"/>
<path d="M7460 3303 c-51 -17 -135 -75 -144 -99 -5 -14 -12 -10 -34 19 -34 43
-78 74 -117 81 -26 5 -25 4 5 -6 19 -7 58 -35 86 -64 l52 -52 33 35 c52 53
122 85 209 93 l75 7 -60 1 c-33 1 -80 -6 -105 -15z"/>
<path d="M8250 3304 c-203 -55 -328 -269 -292 -501 13 -79 49 -170 79 -194 9
-8 5 3 -9 27 -120 190 -68 485 106 603 65 43 124 62 221 71 l90 7 -70 1 c-38
0 -95 -6 -125 -14z"/>
<path d="M2582 3292 c75 -26 116 -52 172 -112 50 -54 91 -131 106 -202 l9 -43
-3 44 c-6 62 -59 163 -116 220 -52 52 -133 97 -190 106 -23 4 -16 -1 22 -13z"/>
<path d="M4349 3291 c-233 -91 -338 -383 -221 -616 30 -60 132 -163 187 -189
131 -63 298 -61 424 4 95 48 212 195 211 264 -1 12 -9 -2 -19 -31 -58 -168
-214 -273 -406 -273 -128 0 -225 39 -311 124 -92 93 -130 200 -121 342 10 174
118 316 283 373 32 11 50 20 39 20 -11 0 -41 -8 -66 -18z"/>
<path d="M4672 3291 c31 -10 72 -28 92 -40 43 -27 121 -112 146 -160 11 -20
19 -31 20 -25 0 22 -79 130 -121 164 -45 36 -141 80 -174 79 -11 0 5 -8 37
-18z"/>
<path d="M5044 3296 c-3 -8 -4 -151 -2 -318 3 -284 5 -306 26 -358 12 -31 39
-72 59 -92 43 -42 115 -78 153 -77 19 1 15 3 -13 10 -93 22 -161 81 -194 168
-14 39 -17 94 -21 359 l-4 312 116 0 116 0 3 -257 2 -258 3 263 2 262 -120 0
c-95 0 -122 -3 -126 -14z"/>
<path d="M5587 3303 c-4 -3 -7 -119 -7 -257 0 -140 -5 -267 -10 -288 -19 -68
-95 -109 -174 -94 -46 9 -74 33 -92 81 -15 40 -15 40 -9 6 20 -123 222 -135
276 -17 17 37 19 69 19 304 l0 262 115 0 115 0 0 -415 0 -415 -110 0 -110 0 0
50 0 51 -37 -37 c-21 -20 -54 -44 -73 -55 -19 -10 -30 -18 -25 -19 13 0 75 37
103 63 l22 20 0 -41 0 -42 120 0 120 0 0 425 0 425 -118 0 c-65 0 -122 -3
-125 -7z"/>
<path d="M5977 3304 c-4 -4 -7 -196 -7 -426 l0 -418 130 0 130 0 -2 243 -3
242 -2 -237 -3 -238 -120 0 -120 0 0 415 0 415 115 0 115 0 1 -62 c0 -37 3
-55 8 -45 4 10 4 39 1 65 l-5 47 -116 3 c-63 1 -118 -1 -122 -4z"/>
<path d="M6590 2885 l0 -425 124 0 c69 0 127 3 129 8 3 4 -51 6 -119 4 l-124
-3 0 415 0 415 113 4 112 3 -117 2 -118 2 0 -425z"/>
<path d="M7660 3297 c19 -8 46 -19 60 -25 58 -24 116 -109 136 -202 9 -42 13
-47 13 -24 3 109 -105 242 -210 259 l-34 6 35 -14z"/>
<path d="M8500 3290 c30 -10 56 -17 58 -16 5 6 -77 36 -96 36 -9 -1 8 -9 38
-20z"/>
<path d="M8782 3203 l3 -108 58 -3 57 -3 0 -213 c0 -255 9 -299 74 -362 49
-46 131 -75 212 -73 43 1 40 3 -26 10 -88 10 -170 47 -201 90 -42 59 -49 109
-49 341 l0 218 -60 0 -60 0 0 101 0 101 60 -4 c33 -1 60 0 60 5 0 4 -29 7 -65
7 l-66 0 3 -107z"/>
<path d="M8625 3218 c37 -34 70 -77 85 -107 13 -28 25 -49 27 -47 8 8 -39 95
-71 132 -19 22 -49 48 -67 58 -25 15 -18 5 26 -36z"/>
<path d="M2956 3194 c-4 -20 -5 -38 -3 -40 3 -3 8 11 11 32 4 20 5 38 3 40 -3
3 -8 -11 -11 -32z"/>
<path d="M6502 3138 c-2 -54 -3 -57 -29 -61 l-28 -4 28 -2 c33 -1 39 11 34 75
l-3 49 -2 -57z"/>
<path d="M2944 3020 c0 -63 1 -89 3 -57 2 31 2 83 0 115 -2 31 -3 5 -3 -58z"/>
<path d="M3503 3114 c-2 -6 -2 -55 -1 -110 l3 -99 128 -3 127 -3 0 -78 c0 -79
0 -79 -32 -98 -88 -51 -252 -58 -342 -14 -91 45 -149 118 -173 221 l-13 55 5
-49 c10 -101 97 -206 201 -246 100 -37 271 -22 338 31 24 19 26 26 26 105 l0
84 -130 0 -130 0 0 100 0 100 240 0 240 0 0 -250 0 -249 -52 -39 c-111 -83
-201 -112 -378 -121 l-135 -8 101 -1 c167 -3 286 31 412 116 l62 43 0 259 0
259 -246 3 c-169 2 -248 0 -251 -8z"/>
<path d="M8307 3116 c-49 -18 -76 -42 -93 -83 -28 -64 -31 -63 151 -63 l165 0
-1 28 c-2 23 -2 24 -6 5 -4 -23 -7 -23 -160 -23 l-155 0 6 26 c30 118 195 152
277 56 l31 -37 -18 33 c-33 59 -123 85 -197 58z"/>
<path d="M1420 3010 l0 -110 130 0 130 0 0 -81 0 -80 -57 -26 c-69 -32 -184
-42 -262 -23 -129 31 -227 160 -232 307 -2 34 -2 35 -6 8 -8 -48 17 -136 52
-191 38 -59 106 -110 173 -130 96 -29 244 -11 315 38 26 19 27 23 27 104 l0
84 -130 0 -130 0 0 100 0 100 240 0 240 0 0 -249 0 -250 -37 -31 c-49 -40
-162 -95 -238 -114 -83 -22 -260 -20 -350 4 -86 22 -99 18 -19 -7 46 -14 92
-18 204 -18 135 0 150 2 223 29 43 16 111 50 151 76 86 56 88 62 81 230 -2 58
-4 158 -4 223 l-1 117 -250 0 -250 0 0 -110z"/>
<path d="M2352 3093 c-91 -44 -134 -178 -97 -299 17 -55 36 -81 80 -110 21
-14 17 -7 -16 27 -136 136 -61 389 116 389 84 0 140 -42 171 -128 7 -20 13
-29 14 -19 0 24 -33 88 -56 108 -57 50 -149 63 -212 32z"/>
<path d="M4493 3103 c15 -2 39 -2 55 0 15 2 2 4 -28 4 -30 0 -43 -2 -27 -4z"/>
<path d="M6925 3096 c-45 -21 -75 -59 -80 -102 -4 -37 -4 -37 4 -7 18 71 71
113 139 113 41 0 93 -39 108 -80 9 -24 13 -114 13 -298 l1 -263 121 3 120 3
-1 235 c0 128 -3 236 -6 239 -2 3 -3 -102 -2 -232 l3 -237 -112 0 -113 0 0
253 c0 138 -5 268 -10 288 -22 77 -112 119 -185 85z"/>
<path d="M7430 3092 c-42 -21 -80 -75 -79 -111 1 -24 2 -23 9 6 16 68 48 98
123 113 36 7 37 8 12 9 -16 0 -46 -7 -65 -17z"/>
<path d="M4416 3081 c-28 -19 -66 -67 -66 -86 0 -5 12 7 26 28 14 21 40 47 57
58 18 10 28 19 22 19 -5 0 -23 -9 -39 -19z"/>
<path d="M4615 3077 c53 -30 86 -91 92 -170 7 -88 -10 -143 -62 -194 -47 -47
-48 -54 -4 -22 52 37 74 93 74 189 0 72 -4 92 -25 130 -24 42 -80 90 -104 90
-6 0 7 -11 29 -23z"/>
<path d="M7560 3082 c66 -32 70 -53 70 -354 l0 -268 125 0 125 0 -2 278 -3
277 -2 -272 -3 -273 -115 0 -115 0 0 260 c0 283 -4 308 -55 348 -15 12 -35 22
-44 22 -9 0 0 -8 19 -18z"/>
<path d="M9142 2912 c-2 -196 2 -222 37 -249 21 -16 88 -15 131 3 19 8 24 12
10 8 -14 -3 -48 -8 -75 -11 -43 -4 -53 -2 -70 17 -18 20 -20 40 -25 224 l-6
201 -2 -193z"/>
<path d="M865 3000 c2 -52 9 -108 15 -125 9 -28 9 -27 4 10 -4 22 -10 78 -15
125 l-8 85 4 -95z"/>
<path d="M6324 3066 c-52 -24 -101 -83 -91 -109 4 -7 6 -6 6 5 1 23 48 76 84
94 16 9 51 20 76 24 42 7 43 8 11 9 -19 0 -58 -10 -86 -23z"/>
<path d="M2016 3009 c-16 -54 -20 -193 -7 -239 4 -14 6 20 4 75 -3 68 0 117
11 155 19 71 12 78 -8 9z"/>
<path d="M3193 3025 c0 -22 2 -30 4 -17 2 12 2 30 0 40 -3 9 -5 -1 -4 -23z"/>
<path d="M4935 3032 c4 -13 11 -45 16 -70 l8 -47 -4 53 c-2 28 -9 60 -15 70
-9 14 -10 13 -5 -6z"/>
<path d="M8747 3010 c3 -25 7 -47 9 -49 8 -9 2 55 -6 74 -6 13 -7 5 -3 -25z"/>
<path d="M4334 2944 c-10 -55 1 -146 25 -192 21 -42 83 -92 111 -92 8 1 2 7
-15 14 -81 36 -110 93 -110 214 0 50 -1 92 -2 92 -1 0 -5 -16 -9 -36z"/>
<path d="M8762 2915 c0 -16 2 -22 5 -12 2 9 2 23 0 30 -3 6 -5 -1 -5 -18z"/>
<path d="M2622 2885 c-4 -101 -41 -172 -107 -205 -22 -11 -33 -20 -25 -20 26
0 79 39 100 72 29 47 42 101 37 156 l-3 47 -2 -50z"/>
<path d="M2873 2880 c0 -30 2 -43 4 -27 2 15 2 39 0 55 -2 15 -4 2 -4 -28z"/>
<path d="M4961 2894 c0 -11 3 -14 6 -6 3 7 2 16 -1 19 -3 4 -6 -2 -5 -13z"/>
<path d="M2951 2884 c-1 -18 9 -53 34 -123 3 -8 8 -11 11 -8 3 3 1 14 -5 26
-6 11 -18 44 -25 73 -8 29 -15 43 -15 32z"/>
<path d="M8751 2852 l-1 -33 -280 3 c-154 2 -280 0 -280 -4 0 -5 126 -8 280
-8 302 0 297 -1 287 52 -3 17 -5 15 -6 -10z"/>
<path d="M890 2829 c0 -33 71 -157 122 -212 48 -52 157 -127 182 -127 6 0 -16
16 -49 35 -105 59 -184 149 -231 262 -13 32 -24 51 -24 42z"/>
<path d="M4952 2810 c0 -19 2 -27 5 -17 2 9 2 25 0 35 -3 9 -5 1 -5 -18z"/>
<path d="M2861 2800 c-1 -14 -4 -36 -6 -50 l-6 -25 11 25 c6 13 9 36 7 50 l-4
25 -2 -25z"/>
<path d="M8200 2791 c0 -26 42 -88 73 -105 l32 -18 -34 28 c-18 15 -42 46 -52
68 -10 23 -19 35 -19 27z"/>
<path d="M3022 2698 c31 -57 105 -129 175 -171 63 -38 168 -77 205 -76 13 0
-7 8 -44 18 -38 10 -94 32 -125 47 -69 35 -165 121 -199 181 -33 55 -43 57
-12 1z"/>
<path d="M8555 2699 c-27 -16 -47 -29 -43 -29 13 0 63 24 81 39 12 10 21 12
25 5 51 -74 123 -158 96 -111 -17 28 -97 127 -103 126 -3 -1 -28 -14 -56 -30z"/>
<path d="M2822 2674 c-35 -72 -108 -143 -187 -180 -38 -19 -64 -34 -57 -34 29
0 137 64 176 106 41 42 103 141 94 149 -2 3 -14 -16 -26 -41z"/>
<path d="M2030 2707 c-1 -22 46 -93 93 -139 87 -87 194 -128 327 -127 41 0 84
4 95 8 11 5 -18 6 -66 3 -53 -3 -107 0 -140 8 -118 27 -234 113 -284 209 -13
25 -24 42 -25 38z"/>
<path d="M2378 2663 c7 -3 16 -2 19 1 4 3 -2 6 -13 5 -11 0 -14 -3 -6 -6z"/>
<path d="M4525 2660 l-40 -7 35 -1 c19 0 44 3 55 8 24 10 7 10 -50 0z"/>
<path d="M8325 2659 c11 -4 49 -8 85 -8 82 1 68 6 -30 12 -43 2 -66 1 -55 -4z"/>
<path d="M2423 2653 c9 -2 25 -2 35 0 9 3 1 5 -18 5 -19 0 -27 -2 -17 -5z"/>
<path d="M9343 2625 c0 -22 2 -30 4 -17 2 12 2 30 0 40 -3 9 -5 -1 -4 -23z"/>
<path d="M8065 2570 c92 -105 312 -159 466 -114 59 17 179 89 179 108 0 8 -3
8 -8 0 -13 -20 -97 -71 -147 -90 -38 -14 -76 -19 -155 -19 -132 0 -200 21
-290 88 -36 27 -56 39 -45 27z"/>
<path d="M9353 2540 c0 -25 2 -35 4 -22 2 12 2 32 0 45 -2 12 -4 2 -4 -23z"/>
<path d="M9345 2481 c-6 -6 -32 -14 -60 -19 -27 -5 -39 -10 -25 -11 35 -1 100
18 100 29 0 12 -3 12 -15 1z"/>
<path d="M5360 2450 l-55 -7 50 0 c28 -1 61 3 75 7 31 10 10 10 -70 0z"/>
</g>
</svg>
