<svg xmlns="http://www.w3.org/2000/svg" xml:space="preserve" id="primary-svg">
    <style>
        #primary-svg { display: inline; border: 0;}
        svg { display: none }
        svg:target { display: inline } 
    </style>

   <svg id="edit" fill="none" viewBox="0 0 24 24">
    <path stroke="currentColor" fill="none" stroke-linecap="round" stroke-linejoin="round" stroke-width="2" d="M12 4H6a2 2 0 0 0-2 2v12a2 2 0 0 0 2 2h12a2 2 0 0 0 2-2v-6M9 15v-2.5l8.75-8.75c.69-.69 1.81-.69 2.5 0v0c.69.69.69 1.81 0 2.5L15.5 11l-4 4H9Z"/>
   </svg>

    <svg id="delete" fill="none" viewBox="0 0 24 24">
        <path stroke="currentColor" fill="none" stroke-linecap="round" stroke-linejoin="round" stroke-width="1.5" d="m16 9-3 3m0 0-3 3m3-3-3-3m3 3 3 3M8 6h11a1 1 0 0 1 1 1v10a1 1 0 0 1-1 1H8l-6-6 6-6Z"/>
    </svg>

</svg>